<svg xmlns="http://www.w3.org/2000/svg" viewBox="0 0 100 100">
  <!-- Background rounded square -->
  <rect width="100" height="100" rx="22" fill="#1C1C1E"/>
  <!-- Sun petals (white) -->
  <g fill="#FFFFFF">
    <path d="M 46 37 Q 50 33 54 37 Q 58 20 50 2 Q 42 20 46 37" transform="rotate(0 50 50)"/>
    <path d="M 46 37 Q 50 33 54 37 Q 58 20 50 2 Q 42 20 46 37" transform="rotate(22.5 50 50)"/>
    <path d="M 46 37 Q 50 33 54 37 Q 58 20 50 2 Q 42 20 46 37" transform="rotate(45 50 50)"/>
    <path d="M 46 37 Q 50 33 54 37 Q 58 20 50 2 Q 42 20 46 37" transform="rotate(67.5 50 50)"/>
    <path d="M 46 37 Q 50 33 54 37 Q 58 20 50 2 Q 42 20 46 37" transform="rotate(90 50 50)"/>
    <path d="M 46 37 Q 50 33 54 37 Q 58 20 50 2 Q 42 20 46 37" transform="rotate(112.5 50 50)"/>
    <path d="M 46 37 Q 50 33 54 37 Q 58 20 50 2 Q 42 20 46 37" transform="rotate(135 50 50)"/>
    <path d="M 46 37 Q 50 33 54 37 Q 58 20 50 2 Q 42 20 46 37" transform="rotate(157.5 50 50)"/>
    <path d="M 46 37 Q 50 33 54 37 Q 58 20 50 2 Q 42 20 46 37" transform="rotate(180 50 50)"/>
    <path d="M 46 37 Q 50 33 54 37 Q 58 20 50 2 Q 42 20 46 37" transform="rotate(202.5 50 50)"/>
    <path d="M 46 37 Q 50 33 54 37 Q 58 20 50 2 Q 42 20 46 37" transform="rotate(225 50 50)"/>
    <path d="M 46 37 Q 50 33 54 37 Q 58 20 50 2 Q 42 20 46 37" transform="rotate(247.5 50 50)"/>
    <path d="M 46 37 Q 50 33 54 37 Q 58 20 50 2 Q 42 20 46 37" transform="rotate(270 50 50)"/>
    <path d="M 46 37 Q 50 33 54 37 Q 58 20 50 2 Q 42 20 46 37" transform="rotate(292.5 50 50)"/>
    <path d="M 46 37 Q 50 33 54 37 Q 58 20 50 2 Q 42 20 46 37" transform="rotate(315 50 50)"/>
    <path d="M 46 37 Q 50 33 54 37 Q 58 20 50 2 Q 42 20 46 37" transform="rotate(337.5 50 50)"/>
  </g>
  <!-- Center circle (yellow) -->
  <circle cx="50" cy="50" r="11" fill="#C8C819"/>
</svg>
